<svg width="15" height="15" viewBox="0 0 15 15" fill="none" xmlns="http://www.w3.org/2000/svg">
<path fill-rule="evenodd" clip-rule="evenodd" d="M15 7.5C15 7.84518 14.7202 8.125 14.375 8.125H8.125V14.375C8.125 14.7202 7.84518 15 7.5 15C7.15482 15 6.875 14.7202 6.875 14.375V8.125H0.625C0.279822 8.125 0 7.84518 0 7.5C0 7.15482 0.279822 6.875 0.625 6.875H6.875V0.625C6.875 0.279822 7.15482 0 7.5 0C7.84518 0 8.125 0.279822 8.125 0.625V6.875H14.375C14.7202 6.875 15 7.15482 15 7.5Z" fill="white"/>
</svg>
