<svg width="16" height="16" viewBox="0 0 16 16" fill="none" xmlns="http://www.w3.org/2000/svg">
<g clip-path="url(#clip0_1_693)">
<path fill-rule="evenodd" clip-rule="evenodd" d="M8 6.14093L14 3.825V11.4554C14 11.5932 13.9152 11.7168 13.7867 11.7664L8 14V6.14093Z" fill="#0D171C"/>
<path fill-rule="evenodd" clip-rule="evenodd" d="M8 2.7294L11.1374 3.858L8 5.06903L4.86257 3.858L8 2.7294ZM3 5.2829L7 6.82683V12.5421L3 10.9982V5.2829ZM9 12.5421V6.82683L13 5.2829V10.9982L9 12.5421ZM8.45133 0.766283C8.1596 0.66134 7.8404 0.66134 7.54867 0.766283L1.66151 2.88403C1.26463 3.02679 1 3.40323 1 3.825V11.4554C1 12.0065 1.33906 12.5009 1.85321 12.6993L7.6399 14.9329C7.87163 15.0224 8.12837 15.0224 8.3601 14.9329L14.1468 12.6993C14.6609 12.5009 15 12.0065 15 11.4554V3.825C15 3.40323 14.7354 3.02679 14.3385 2.88403L8.45133 0.766283Z" fill="#0D171C"/>
</g>
<defs>
<clipPath id="clip0_1_693">
<rect width="16" height="16" fill="white"/>
</clipPath>
</defs>
</svg>
