<svg width="136" height="40" viewBox="0 0 136 40" fill="none" xmlns="http://www.w3.org/2000/svg">
<rect width="40" height="40" rx="12" fill="#E8EDF2"/>
<g clip-path="url(#clip0_1_718)">
<path fill-rule="evenodd" clip-rule="evenodd" d="M27.9422 27.0578L24.0305 23.1469C26.3858 20.3192 26.1004 16.1391 23.3826 13.6578C20.6649 11.1765 16.4761 11.2717 13.8739 13.8739C11.2717 16.4761 11.1765 20.6649 13.6578 23.3826C16.1391 26.1004 20.3192 26.3858 23.1469 24.0305L27.0578 27.9422C27.302 28.1864 27.698 28.1864 27.9422 27.9422C28.1864 27.698 28.1864 27.302 27.9422 27.0578ZM13.125 18.75C13.125 15.6434 15.6434 13.125 18.75 13.125C21.8566 13.125 24.375 15.6434 24.375 18.75C24.375 21.8566 21.8566 24.375 18.75 24.375C15.6448 24.3716 13.1284 21.8552 13.125 18.75Z" fill="#0D171C"/>
</g>
<rect x="48" width="40" height="40" rx="12" fill="#E8EDF2"/>
<g clip-path="url(#clip1_1_718)">
<path fill-rule="evenodd" clip-rule="evenodd" d="M75.3281 23.7453C74.8945 22.9984 74.25 20.8852 74.25 18.125C74.25 14.6732 71.4518 11.875 68 11.875C64.5482 11.875 61.75 14.6732 61.75 18.125C61.75 20.8859 61.1047 22.9984 60.6711 23.7453C60.4457 24.1318 60.4441 24.6092 60.6668 24.9973C60.8895 25.3853 61.3026 25.6247 61.75 25.625H64.9383C65.2356 27.0796 66.5153 28.1243 68 28.1243C69.4847 28.1243 70.7644 27.0796 71.0617 25.625H74.25C74.6972 25.6244 75.1101 25.3849 75.3326 24.9969C75.5551 24.609 75.5534 24.1317 75.3281 23.7453ZM68 26.875C67.2056 26.8748 66.4976 26.3739 66.2328 25.625H69.7672C69.5024 26.3739 68.7944 26.8748 68 26.875ZM61.75 24.375C62.3516 23.3406 63 20.9438 63 18.125C63 15.3636 65.2386 13.125 68 13.125C70.7614 13.125 73 15.3636 73 18.125C73 20.9414 73.6469 23.3383 74.25 24.375H61.75Z" fill="#0D171C"/>
</g>
<rect x="96" width="40" height="40" rx="12" fill="#E8EDF2"/>
<g clip-path="url(#clip2_1_718)">
<path fill-rule="evenodd" clip-rule="evenodd" d="M123.5 13.75H108.5C108.155 13.75 107.875 14.0298 107.875 14.375V25C107.875 25.6904 108.435 26.25 109.125 26.25H122.875C123.565 26.25 124.125 25.6904 124.125 25V14.375C124.125 14.0298 123.845 13.75 123.5 13.75ZM109.125 18.75H112.25V21.25H109.125V18.75ZM113.5 18.75H122.875V21.25H113.5V18.75ZM122.875 15V17.5H109.125V15H122.875ZM109.125 22.5H112.25V25H109.125V22.5ZM122.875 25H113.5V22.5H122.875V25Z" fill="#0D171C"/>
</g>
<defs>
<clipPath id="clip0_1_718">
<rect width="20" height="20" fill="white" transform="translate(10 10)"/>
</clipPath>
<clipPath id="clip1_1_718">
<rect width="20" height="20" fill="white" transform="translate(58 10)"/>
</clipPath>
<clipPath id="clip2_1_718">
<rect width="20" height="20" fill="white" transform="translate(106 10)"/>
</clipPath>
</defs>
</svg>
