<svg width="18" height="18" viewBox="0 0 18 18" fill="none" xmlns="http://www.w3.org/2000/svg">
<path fill-rule="evenodd" clip-rule="evenodd" d="M16.5 0H1.5C0.671573 0 0 0.671573 0 1.5V16.5C0 17.3284 0.671573 18 1.5 18H16.5C17.3284 18 18 17.3284 18 16.5V1.5C18 0.671573 17.3284 0 16.5 0ZM13.2806 7.28063L8.03063 12.5306C7.88995 12.6715 7.69906 12.7506 7.5 12.7506C7.30094 12.7506 7.11005 12.6715 6.96937 12.5306L4.71938 10.2806C4.42632 9.98757 4.42632 9.51243 4.71938 9.21937C5.01243 8.92632 5.48757 8.92632 5.78063 9.21937L7.5 10.9397L12.2194 6.21937C12.5124 5.92632 12.9876 5.92632 13.2806 6.21937C13.5737 6.51243 13.5737 6.98757 13.2806 7.28063Z" fill="#121417"/>
</svg>
