<svg width="14" height="14" viewBox="0 0 14 14" fill="none" xmlns="http://www.w3.org/2000/svg">
<path fill-rule="evenodd" clip-rule="evenodd" d="M12.2022 6.20183C12.4991 6.13799 12.6094 6.17921 12.6336 6.1908C12.6435 6.21151 12.666 6.27942 12.6504 6.43964C12.6277 6.67224 12.53 7.00139 12.3307 7.41338C11.9349 8.23129 11.2049 9.23982 10.2224 10.2224C9.23986 11.2049 8.23136 11.9349 7.41341 12.3307C7.00142 12.53 6.67227 12.6277 6.43967 12.6504C6.27948 12.666 6.21158 12.6434 6.19083 12.6335C6.17924 12.6094 6.13802 12.499 6.20186 12.2022C6.27918 11.8426 6.48516 11.3586 6.83307 10.7925C7.25453 10.1067 7.85703 9.34448 8.60078 8.60072C9.34451 7.857 10.1067 7.25447 10.7925 6.833C11.3586 6.48513 11.8426 6.27915 12.2022 6.20183ZM0.414812 8.76151L5.23821 13.5849C5.61527 13.962 6.12673 14.032 6.57014 13.9887C7.01954 13.9449 7.50912 13.7782 7.99909 13.5411C8.98507 13.064 10.1135 12.233 11.1732 11.1732C12.233 10.1134 13.0641 8.98504 13.5412 7.99906C13.7782 7.50909 13.9449 7.01951 13.9888 6.57011C14.032 6.12669 13.962 5.61524 13.5849 5.23818L8.76154 0.414775C8.29507 -0.0517006 7.63071 -0.0512132 7.09606 0.0637693C6.53195 0.185085 5.90172 0.472705 5.26507 0.863954C4.47781 1.34776 3.63411 2.0189 2.82651 2.82648C2.01893 3.63405 1.3478 4.47778 0.863988 5.26504C0.472742 5.90169 0.185123 6.53192 0.0638068 7.09603C-0.0511791 7.63068 -0.0516665 8.29503 0.414812 8.76151Z" fill="#0D171C"/>
</svg>
