<svg width="184" height="40" viewBox="0 0 184 40" fill="none" xmlns="http://www.w3.org/2000/svg">
<rect width="40" height="40" rx="12" fill="#F0F2F5"/>
<g clip-path="url(#clip0_1_476)">
<path fill-rule="evenodd" clip-rule="evenodd" d="M27.9422 27.0578L24.0305 23.1469C26.3858 20.3192 26.1004 16.1391 23.3826 13.6578C20.6649 11.1765 16.4761 11.2717 13.8739 13.8739C11.2717 16.4761 11.1765 20.6649 13.6578 23.3826C16.1391 26.1004 20.3192 26.3858 23.1469 24.0305L27.0578 27.9422C27.302 28.1864 27.698 28.1864 27.9422 27.9422C28.1864 27.698 28.1864 27.302 27.9422 27.0578ZM13.125 18.75C13.125 15.6434 15.6434 13.125 18.75 13.125C21.8566 13.125 24.375 15.6434 24.375 18.75C24.375 21.8566 21.8566 24.375 18.75 24.375C15.6448 24.3716 13.1284 21.8552 13.125 18.75Z" fill="#121417"/>
</g>
<rect x="48" width="40" height="40" rx="12" fill="#F0F2F5"/>
<g clip-path="url(#clip1_1_476)">
<path fill-rule="evenodd" clip-rule="evenodd" d="M68.9375 20C68.9375 20.5178 68.5178 20.9375 68 20.9375C67.4822 20.9375 67.0625 20.5178 67.0625 20C67.0625 19.4822 67.4822 19.0625 68 19.0625C68.5178 19.0625 68.9375 19.4822 68.9375 20ZM64.5625 19.0625C64.0447 19.0625 63.625 19.4822 63.625 20C63.625 20.5178 64.0447 20.9375 64.5625 20.9375C65.0803 20.9375 65.5 20.5178 65.5 20C65.5 19.4822 65.0803 19.0625 64.5625 19.0625ZM71.4375 19.0625C70.9197 19.0625 70.5 19.4822 70.5 20C70.5 20.5178 70.9197 20.9375 71.4375 20.9375C71.9553 20.9375 72.375 20.5178 72.375 20C72.375 19.4822 71.9553 19.0625 71.4375 19.0625ZM76.125 20C76.1256 22.8534 74.6294 25.4979 72.1834 26.9671C69.7373 28.4362 66.6998 28.5145 64.1813 27.1734L61.5211 28.0602C61.0719 28.21 60.5766 28.0931 60.2418 27.7582C59.9069 27.4234 59.79 26.9281 59.9398 26.4789L60.8266 23.8188C59.239 20.8339 59.6656 17.1778 61.8979 14.6386C64.1302 12.0995 67.7015 11.2081 70.8651 12.4003C74.0288 13.5925 76.1236 16.6192 76.125 20ZM74.875 20C74.8742 17.1096 73.0656 14.5284 70.3492 13.5408C67.6328 12.5531 64.5887 13.37 62.7317 15.5849C60.8747 17.7998 60.6013 20.9397 62.0477 23.4422C62.1372 23.5972 62.156 23.7833 62.0992 23.9531L61.125 26.875L64.0469 25.9008C64.1105 25.8791 64.1773 25.868 64.2445 25.868C64.3543 25.8682 64.4621 25.8973 64.557 25.9523C66.6843 27.1831 69.3067 27.1848 71.4354 25.9567C73.5642 24.7286 74.8756 22.4576 74.875 20Z" fill="#121417"/>
</g>
<rect x="96" width="40" height="40" rx="12" fill="#F0F2F5"/>
<g clip-path="url(#clip2_1_476)">
<path fill-rule="evenodd" clip-rule="evenodd" d="M121.625 13.125H110.375C109.685 13.125 109.125 13.6846 109.125 14.375V25.625C109.125 26.3154 109.685 26.875 110.375 26.875H121.625C122.315 26.875 122.875 26.3154 122.875 25.625V14.375C122.875 13.6846 122.315 13.125 121.625 13.125ZM121.625 19.375H116.625V14.375H121.625V19.375ZM115.375 14.375V19.375H110.375V14.375H115.375ZM110.375 20.625H115.375V25.625H110.375V20.625ZM121.625 25.625H116.625V20.625H121.625V25.625Z" fill="#121417"/>
</g>
<rect x="144" width="40" height="40" rx="12" fill="#F0F2F5"/>
<g clip-path="url(#clip3_1_476)">
<path fill-rule="evenodd" clip-rule="evenodd" d="M171.328 23.7453C170.895 22.9984 170.25 20.8852 170.25 18.125C170.25 14.6732 167.452 11.875 164 11.875C160.548 11.875 157.75 14.6732 157.75 18.125C157.75 20.8859 157.105 22.9984 156.671 23.7453C156.446 24.1318 156.444 24.6092 156.667 24.9973C156.89 25.3853 157.303 25.6247 157.75 25.625H160.938C161.236 27.0796 162.515 28.1243 164 28.1243C165.485 28.1243 166.764 27.0796 167.062 25.625H170.25C170.697 25.6244 171.11 25.3849 171.333 24.9969C171.555 24.609 171.553 24.1317 171.328 23.7453ZM164 26.875C163.206 26.8748 162.498 26.3739 162.233 25.625H165.767C165.502 26.3739 164.794 26.8748 164 26.875ZM157.75 24.375C158.352 23.3406 159 20.9438 159 18.125C159 15.3636 161.239 13.125 164 13.125C166.761 13.125 169 15.3636 169 18.125C169 20.9414 169.647 23.3383 170.25 24.375H157.75Z" fill="#121417"/>
</g>
<defs>
<clipPath id="clip0_1_476">
<rect width="20" height="20" fill="white" transform="translate(10 10)"/>
</clipPath>
<clipPath id="clip1_1_476">
<rect width="20" height="20" fill="white" transform="translate(58 10)"/>
</clipPath>
<clipPath id="clip2_1_476">
<rect width="20" height="20" fill="white" transform="translate(106 10)"/>
</clipPath>
<clipPath id="clip3_1_476">
<rect width="20" height="20" fill="white" transform="translate(154 10)"/>
</clipPath>
</defs>
</svg>
